<?xml version="1.0" encoding="utf-8"?>
<!-- Generator: Adobe Illustrator 19.2.1, SVG Export Plug-In . SVG Version: 6.00 Build 0)  -->
<svg version="1.1" id="Layer_1" xmlns="http://www.w3.org/2000/svg" xmlns:xlink="http://www.w3.org/1999/xlink" x="0px" y="0px"
	 viewBox="0 0 278.4 79.5" style="enable-background:new 0 0 278.4 79.5;" xml:space="preserve">
<style type="text/css">
	.st0{fill:#FFFFFF;}
</style>
<g>
	<path class="st0" d="M25.2,35.7c2.7,0,4.6,1,4.6,1c0-2.3-0.4-3.5-3.2-3.5c-1.6,0-4.4,0.4-6,0.9c-0.9,0.3-1.3-0.4-1.4-1.3L18.6,29
		c-0.2-1,0.4-1.4,0.9-1.6c0.5-0.2,4.7-0.9,8-0.9c7.4,0,10.1,3.1,10.1,10.2v13.3c0,0.6-0.5,1.1-1.1,1.1h-2.6c-0.4,0-0.8-0.1-1.1-0.8
		L32,48.7c-1.4,1.3-3.5,3-7.3,3c-4.7,0-8.3-3.2-8.3-7.9C16.4,39.1,19.8,35.7,25.2,35.7z M26.8,45.8c1.4,0,2.6-1.2,2.6-2.6
		c-0.1-1.4-1.2-2.5-2.6-2.5s-2.6,1.1-2.6,2.5C24.2,44.6,25.4,45.8,26.8,45.8z"/>
	<path class="st0" d="M41.4,28.2c0-0.7,0.5-1.1,1.1-1.1h2.8c0.7,0,0.9,0.4,1.1,0.7l1.1,2.6c1.2-1.7,3.4-4,6.5-4
		c3.3,0,5.6,1.2,4.8,2.6l-2.9,4.8c-0.2,0.4-0.7,0.8-1.3,0.5c-0.3-0.1-0.9-0.3-1.4-0.3c-1.8,0-3.2,1.4-3.2,3.4v12.4
		c0,0.7-0.4,1.1-1.3,1.1h-6.1c-0.6,0-1.1-0.5-1.1-1.1V28.2z"/>
	<path class="st0" d="M70.5,26.5c3.8,0,6.7,1.6,9,4.3c0.4,0.5,0.2,1.2-0.3,1.7l-3.6,3.4c-0.3,0.3-1,0.2-1.3-0.1
		c-0.8-0.9-2.1-1.6-3.5-1.6c-2.6,0-4.8,2.2-4.8,4.9c0,2.7,2,4.9,4.7,4.9c2.1,0,3.1-0.9,4.1-1.9c0.4-0.4,1-0.5,1.3-0.2l3.6,3.1
		c0.5,0.5,0.8,1.1,0.4,1.7c-2.2,3.4-5.3,5-9.7,5c-6.8,0-12.9-5.4-12.9-12.6C57.5,32,63.6,26.5,70.5,26.5z"/>
	<path class="st0" d="M82.2,10.2c0-0.6,0.5-1.1,1.1-1.1H90c0.6,0,1.1,0.5,1.1,1.1v17.6c1.8-0.9,3.8-1.4,5.6-1.4
		c7.6,0,11.5,5.9,11.5,12.6v10.9c0,0.6-0.5,1.1-1.1,1.1h-6.4c-0.7,0-1.1-0.5-1.1-1.1v-11c0-2.6-1.7-4.7-4.4-4.7c-1.9,0-4,1.1-4,4.7
		v11c0,0.8-0.3,1.1-1.3,1.1h-6.5c-0.6,0-1.1-0.5-1.1-1.1V10.2z"/>
	<path class="st0" d="M110,15.1c0-2.6,2.1-4.8,4.7-4.8c2.6,0,4.8,2.2,4.8,4.8s-2.2,4.7-4.8,4.7C112.1,19.8,110,17.7,110,15.1z
		 M110.4,28.2c0-0.7,0.5-1.1,1.1-1.1h6.6c0.6,0,1.1,0.5,1.1,1.1v21.7c0,0.6-0.5,1.1-1.1,1.1h-6.6c-0.6,0-1.1-0.5-1.1-1.1V28.2z"/>
	<path class="st0" d="M131.1,67.9c0,0.6-0.5,1.1-1.1,1.1h-6.7c-0.6,0-1.1-0.5-1.1-1.1V28.2c0-0.6,0.5-1.1,1.1-1.1h2.8
		c0.6,0,1,0.5,1.3,1.2l0.7,2c0,0,2.8-3.8,8-3.8c6.8,0,11.9,5.7,11.9,12.6c0,8.5-5.5,12.6-11.9,12.6c-2,0-4.3-0.7-5-1.1V67.9z
		 M134.9,43.9c2.8,0,4.9-2.1,4.9-4.8c0-2.8-2.1-4.9-4.9-4.9c-2.8,0-4.8,2.2-4.8,4.9C130.1,41.8,132.2,43.9,134.9,43.9z"/>
	<path class="st0" d="M162.2,26.5c6.1,0,11.4,4.7,11.4,11.3c0,0.4-0.1,1.2-0.1,1.6c-0.1,0.6-0.6,1-1.1,1h-14.4c0.2,1.6,1.5,4,4.6,4
		c1.5,0,3.2-0.7,4.2-1.4c0.5-0.4,1.1-0.4,1.5,0l3,3.6c0.4,0.5,0.5,1.2-0.1,1.7c-2.1,2.1-5.1,3.4-8.9,3.4c-7.1,0-12.5-5.7-12.5-12.6
		C149.7,32.3,155.1,26.5,162.2,26.5z M165.1,35.7c-0.1-1.6-1.6-2.8-3.2-2.8c-1.6,0-3,1.3-3.2,2.8H165.1z"/>
	<path class="st0" d="M175.5,10.2c0-0.6,0.5-1.1,1.1-1.1h6.6c0.6,0,1.1,0.5,1.1,1.1v39.7c0,0.6-0.5,1.1-1.1,1.1h-6.6
		c-0.6,0-1.1-0.5-1.1-1.1V10.2z"/>
	<path class="st0" d="M195.6,35.7c2.7,0,4.6,1,4.6,1c0-2.3-0.4-3.5-3.2-3.5c-1.6,0-4.4,0.4-6,0.9c-0.9,0.3-1.3-0.4-1.4-1.3L189,29
		c-0.2-1,0.4-1.4,0.9-1.6c0.5-0.2,4.7-0.9,8-0.9c7.4,0,10.1,3.1,10.1,10.2v13.3c0,0.6-0.5,1.1-1.1,1.1h-2.6c-0.4,0-0.8-0.1-1.1-0.8
		l-0.8-1.6c-1.4,1.3-3.5,3-7.3,3c-4.7,0-8.3-3.2-8.3-7.9C186.8,39.1,190.2,35.7,195.6,35.7z M197.2,45.8c1.4,0,2.6-1.2,2.6-2.6
		c-0.1-1.4-1.2-2.5-2.6-2.5s-2.6,1.1-2.6,2.5C194.6,44.6,195.8,45.8,197.2,45.8z"/>
	<path class="st0" d="M249.1,26.5c6.8,0,12.5,5.8,12.5,12.5c0,6.9-5.6,12.7-12.5,12.7s-12.5-5.8-12.5-12.7
		C236.6,32.2,242.3,26.5,249.1,26.5z M249.1,43.9c2.6,0,4.7-2.2,4.7-4.9c0-2.6-2.1-4.8-4.7-4.8s-4.7,2.2-4.7,4.8
		C244.4,41.7,246.5,43.9,249.1,43.9z"/>
	<path class="st0" d="M236.5,30.1v-2.5c0-0.6-0.5-1.1-1.1-1.1h-3.8c-3,0.2-0.5,4.1,0.5,5.4c0.2,0.3,0.6,0.4,0.9,0.3l2.9-1.1
		C236.2,30.9,236.5,30.5,236.5,30.1z"/>
	<path class="st0" d="M217.5,50.9l0.9,1.8c0.3,0.5,0.1,1.2-0.5,1.4c-0.9,0.4-2.2,1.1-2.9,1.6c-0.7,0.4-3.7,2.2-3.7,5.8
		c0,3.8,3.2,8.2,12.5,8.2c9.5,0,13.5-4.7,13.5-10.4c0-5.3-4.7-8.8-10.3-8.8l-9.3,0C217.5,50.4,217.3,50.7,217.5,50.9z M223.9,62.6
		c-2.9,0-4.3-1.1-4.3-2.8c0-1.7,2.2-2.5,4.3-2.5c3.2,0,4.3,1.3,4.3,2.5C228.2,61.4,226.9,62.6,223.9,62.6z"/>
	<path class="st0" d="M232.4,32.3c0,0-3-2.9-6.7-4.9c-1.5-0.8-3.3-1-4.9-0.5c-4.2,1.4-7.3,5.4-7.3,9.8c0,3.7,1.7,5.5,1.7,5.5
		s2.8,3.6,6.7,4.9l2.3,0c6.4,0,10.4-4.7,10.4-9.1C234.6,34.2,232.4,32.3,232.4,32.3z M224.3,40.5c-1.8,0-3.2-1.3-3.2-3.1
		c0-1.8,1.4-3.1,3.2-3.1c1.9,0,3.2,1.3,3.2,3.1C227.4,39.2,226.1,40.5,224.3,40.5z"/>
	<path class="st0" d="M214.3,43.5L214.3,43.5c0.6-0.2,1.2,0.2,1.3,0.8l1.1,6.4c0.1,0.4-0.1,0.9-0.5,1.1l-1.8,1
		c-0.6,0.3-1.4,0-1.5-0.7l-0.6-3.2c0-0.2,0-0.3,0-0.5l1.2-4.1C213.7,43.9,213.9,43.6,214.3,43.5z"/>
</g>
</svg>
